# xmcd
#
# Track frame offsets:
#	150
#	13728
#	35019
#	49886
#	67509
#	81456
#	92354
#	108749
#	122049
#	136916
#	154679
#	166289
#	180254
#	199256
#	211396
#	225329
#	244244
#	256606
#	270704
#	294853
#	310668
#	330151
#
# Disc length: 4655 seconds
#
# Revision: 2
# Processed by: cddbd v1.5.1PL0 Copyright (c) Steve Scherf et al.
# Submitted via: audiograbber 1.83.01
#
DISCID=1e122d16
DTITLE=Norah Jones - Come with me
DYEAR=2003
DGENRE=Blues
TTITLE0=Ruler of my heart (live)
TTITLE1=Cold heart
TTITLE2=I'll be your baby tonight
TTITLE3=Peace
TTITLE4=Don't know why
TTITLE5=Seven years
TTITLE6=Cold cold heart
TTITLE7=Feelin' the same way
TTITLE8=Come away with me.
TTITLE9=Shoot the moon
TTITLE10=Turn me on
TTITLE11=lonestar
TTITLE12=I've got to see you again
TTITLE13=Painter song
TTITLE14=one flight down
TTITLE15=nightingale
TTITLE16=The long day is over
TTITLE17=The nearness of you
TTITLE18=Goodbyes
TTITLE19=I'm alive
TTITLE20=A new day has come
TTITLE21=Right the front of you
EXTD=
EXTT0=
EXTT1=
EXTT2=
EXTT3=
EXTT4=
EXTT5=
EXTT6=
EXTT7=
EXTT8=
EXTT9=
EXTT10=
EXTT11=
EXTT12=
EXTT13=
EXTT14=
EXTT15=
EXTT16=
EXTT17=
EXTT18=
EXTT19=
EXTT20=
EXTT21=
PLAYORDER=
